<svg xmlns="http://www.w3.org/2000/svg" viewBox="0 0 684 684" width="684" height="684"><defs></defs><g>
<g>
	<g transform="matrix(1,0,0,1,342,342)">
		<g transform="matrix(1,0,0,1,0.5,0.5)">
			<path d="M-101.5,-258.5C-114.112,-253.862 -125.445999,-247.195 -135.5,-238.5 C-131.921036,-240.058769 -128.559601,-242.07563 -125.5,-244.5 C-124.924179,-244.297485 -124.408401,-243.953644 -124,-243.5 C-123.046219,-244.575752 -122.208267,-245.748878 -121.5,-247 C-114.979553,-251.082199 -108.308197,-254.918236 -101.5,-258.5 L -101.5,-258.5 ZM12.5,-280.5C0.841919,-281.133102 -10.841919,-281.133102 -22.5,-280.5 C-10.871429,-279.166702 0.871429,-279.166702 12.5,-280.5 L 12.5,-280.5 Z" fill="#44331b"/>
		</g>
		<g transform="matrix(1,0,0,1,0.5,0.5)">
			<path d="M-28.5,154.5C-17.810455,156.099121 -7.383972,159.12616 2.5,163.5 C11.633423,136.933685 20.467316,110.26532 29,83.5 C30.92099,77.30899 34.087006,71.976013 38.5,67.5 C38.5,66.833008 38.833008,66.5 39.5,66.5 C45.309998,60.162994 52.643005,56.996002 61.5,57 C68.338989,47.192993 75.338989,47.026001 82.5,56.5 C83.722992,57.614014 85.056,57.781006 86.5,57 C88.087006,52.151001 91.087006,48.484009 95.5,46 C106.407013,43.283997 113.73999,47.118011 117.5,57.5 C121.418182,58.488586 125.472229,58.826447 129.5,58.5 C133.859985,47.316986 141.692993,43.984009 153,48.5 C162.554993,32.942993 169.388,16.277008 173.5,-1.5 C171.502991,-12.481995 167.170013,-22.481995 160.5,-31.5 C145.5,-47.165985 127.166992,-56.165985 105.5,-58.5 C102.97699,-45.971008 95.97699,-36.803986 84.5,-31 C79.539001,-28.010742 74.140167,-25.817474 68.5,-24.5 C67.213989,-14.313995 69.381012,-4.980011 75,3.5 C86.431,13.209015 98.264008,14.041992 110.5,6 C112.762177,4.282623 114.931885,2.446716 117,0.5 C119.708038,-3.750519 122.542633,-7.919037 125.5,-12 C135.333008,-12.549011 138.5,-8.049011 135,1.5 C128.385986,15.441986 117.553009,24.274994 102.5,28 C85.752991,31.528015 71.585999,27.028015 60,14.5 C51.81601,22.677002 41.981995,27.843994 30.5,30 C14.68399,33.029999 -0.648987,31.529999 -15.5,25.5 C-26.695007,20.470001 -33.695007,11.970001 -36.5,0 C-35.166992,-5.333008 -31.834015,-7.333008 -26.5,-6 C-22.062012,-3.807007 -18.727997,-0.472992 -16.5,4 C-3.256989,13.562988 11.408997,16.562988 27.5,13 C47.438995,8.880005 55.772003,-3.286987 52.5,-23.5 C41.417999,-26.358002 31.084991,-30.858002 21.5,-37 C13.937012,-42.708008 9.604004,-50.208008 8.5,-59.5 C-7.158478,-57.893738 -22.587891,-54.53952 -37.5,-49.5 C-52.371002,-42.885986 -65.371002,-33.553009 -76.5,-21.5 C-74.154755,-21.664154 -71.798096,-21.495819 -69.5,-21 C-65.942993,-18.419006 -65.609985,-15.419006 -68.5,-12 C-75.522003,-10.969513 -82.523346,-9.802612 -89.5,-8.5 C-95.582001,7.622986 -94.748993,23.289001 -87,38.5 C-82.528015,43.31601 -78.694,48.483002 -75.5,54 C-80.689484,82.563354 -83.698151,111.480133 -84.5,140.5 C-83.399994,141.558014 -82.06601,142.391998 -80.5,143 C-63.617371,148.644287 -46.188324,152.498779 -28.5,154.5 L -28.5,154.5 Z" fill="#ebc794"/>
		</g>
		<g transform="matrix(1,0,0,1,0.5,0.5)">
			<path d="M-85.5,-266.5C-65.156006,-273.970001 -44.156006,-278.636002 -22.5,-280.5 C-10.841919,-281.133102 0.841919,-281.133102 12.5,-280.5 C19.551849,-280.183121 26.570831,-279.34753 33.5,-278 C79.77301,-271.198998 119.105988,-251.198998 151.5,-218 C171.177979,-222.333 188.177979,-217.499001 202.5,-203.5 C217.299988,-179.610992 215.46698,-156.944 197,-135.5 C196.083557,-133.987732 195.567383,-132.266998 195.5,-130.5 C199.991516,-107.096024 202.334595,-83.330505 202.5,-59.5 C220.027832,-62.285675 237.842651,-62.789856 255.5,-61 C260.710022,-59.789001 262.544006,-56.622986 261,-51.5 C260.291992,-50.618988 259.458008,-49.953003 258.5,-49.5 C258.15802,-48.661987 257.492004,-48.328003 256.5,-48.5 C254.892639,-47.918793 253.207275,-47.581726 251.5,-47.5 C234.934082,-50.092011 218.065918,-50.092011 201.5,-47.5 C201.199707,-42.127228 200.531494,-36.781372 199.5,-31.5 C219.319946,-28.878235 238.778015,-24.013733 257.5,-17 C263.252014,-13.819 263.919006,-9.819 259.5,-5 C259.5,-5 255.5,-4.5 255.5,-4.5 C243.759644,-8.968109 231.732605,-12.643036 219.5,-15.5 C212.719971,-17.654999 205.719971,-18.321991 198.5,-17.5 C193.663025,6.161987 185.997009,28.82901 175.5,50.5 C175.5,50.5 177.5,50.5 177.5,50.5 C177.611023,49.882996 177.94397,49.382996 178.5,49 C183.484009,47.07901 188.484009,47.07901 193.5,49 C198.200989,50.528015 200.867981,53.695007 201.5,58.5 C204.208313,58.818024 206.953308,58.474884 209.5,57.5 C214.619995,49.089996 221.619995,46.756989 230.5,50.5 C235.085022,51.242004 238.41803,53.742004 240.5,58 C259.801025,56.776001 270.46698,65.609009 272.5,84.5 C271.799255,92.301636 270.291199,100.009552 268,107.5 C252.679321,157.119507 237.512573,206.786438 222.5,256.5 C287.625,201.942993 325.958008,132.277008 337.5,47.5 C339.372498,34.895905 340.707031,22.217743 341.5,9.5 C341.5,9.5 341.5,-18.5 341.5,-18.5 C334.294006,-121.757996 290.627991,-205.591003 210.5,-270 C200.848572,-277.812485 190.467346,-284.677498 179.5,-290.5 C170.284302,-296.61269 160.58548,-301.963753 150.5,-306.5 C119.067993,-321.587 86.067993,-331.754 51.5,-337 C-13.540009,-346.867 -76.207001,-339.033 -136.5,-313.5 C-158.175003,-304.630001 -178.507996,-293.464001 -197.5,-280 C-240.624001,-249.387001 -274.624001,-210.886993 -299.5,-164.5 C-309.66,-147.895004 -317.827999,-130.227997 -324,-111.5 C-329.438124,-93.747604 -333.944275,-75.722992 -337.5,-57.5 C-339.653941,-42.558166 -341.321489,-27.550232 -342.5,-12.5 C-342.5,-12.5 -342.5,13.5 -342.5,13.5 C-337.674,107.083008 -301.007999,185.416016 -232.5,248.5 C-231.714996,241.177002 -231.547997,233.843994 -232,226.5 C-232,226.5 -236.5,217.5 -236.5,217.5 C-247.528,185.830017 -248.360001,153.829987 -239,121.5 C-230.926117,98.117615 -223.754158,74.433441 -217.5,50.5 C-211.701004,26.533997 -210.367004,2.200989 -213.5,-22.5 C-214.818001,-40.809631 -214.818001,-59.190369 -213.5,-77.5 C-211.440521,-90.452042 -208.770874,-103.299667 -205.5,-116 C-222.785004,-128.735992 -231.452003,-145.903 -231.5,-167.5 C-230.672997,-171.363007 -229.838997,-175.363007 -229,-179.5 C-217.226997,-209.886002 -195.559998,-221.219002 -164,-213.5 C-155.496994,-223.181999 -145.996994,-231.514999 -135.5,-238.5 C-125.445999,-247.195 -114.112,-253.862 -101.5,-258.5 C-96.44664,-261.693283 -91.086639,-264.373283 -85.5,-266.5 L -85.5,-266.5 Z" fill="#bfd9dc"/>
		</g>
		<g transform="matrix(1,0,0,1,0.5,0.5)">
			<path d="M230.5,50.5C221.619995,46.756989 214.619995,49.089996 209.5,57.5 C206.914001,58.480011 204.247009,58.812988 201.5,58.5 C200.867981,53.695007 198.200989,50.528015 193.5,49 C188.484009,47.07901 183.484009,47.07901 178.5,49 C177.94397,49.382996 177.611023,49.882996 177.5,50.5 C177.5,50.5 175.5,50.5 175.5,50.5 C173.658997,51.673004 171.825989,51.673004 170,50.5 C168.428589,52.034668 166.555756,53.226471 164.5,54 C167.172424,54.754486 169.705139,55.936432 172,57.5 C177.763977,54.39801 178.596985,55.230988 174.5,60 C175.505981,61.338013 176.505981,62.67099 177.5,64 C176.294983,65.270996 174.961975,65.937012 173.5,66 C174.607971,63.01001 173.775024,60.51001 171,58.5 C170.492981,59.996002 170.992981,61.162994 172.5,62 C171.22998,62.899994 170.22998,64.06601 169.5,65.5 C166.820007,62.557007 166.153015,62.890015 167.5,66.5 C166.490601,67.339081 165.643311,68.355835 165,69.5 C164.279999,67.888 164.446014,66.388 165.5,65 C164.251007,63.175995 163.084991,63.342987 162,65.5 C161.734985,67.162994 162.234985,68.662994 163.5,70 C162.806183,71.07373 162.299011,72.25708 162,73.5 C160.022003,71.253998 159.022003,68.92099 159,66.5 C157.666992,70.5 156.333008,70.5 155,66.5 C154.279999,68.112 154.446014,69.612 155.5,71 C153.820007,71.033997 152.320007,71.200989 151,71.5 C150.688995,68.921997 151.522003,66.755005 153.5,65 C153.5,65 150.5,64 150.5,64 C152.433014,63.217011 153.933014,63.717011 155,65.5 C156.230011,63.980011 157.397003,63.147003 158.5,63 C158.274994,61.378998 157.441986,60.212006 156,59.5 C154.50708,60.764587 152.818359,61.777802 151,62.5 C149.311096,62.064697 147.761841,61.20401 146.5,60 C147.634003,58.984009 147.300995,58.316986 145.5,58 C147.783997,56.636993 147.950989,55.136993 146,53.5 C146,53.5 145,56.5 145,56.5 C143.933014,54.717011 142.433014,54.217011 140.5,55 C142.290985,55.415009 143.623993,56.415009 144.5,58 C142.451813,58.788635 140.581879,59.978577 139,61.5 C138,60.166992 137,60.166992 136,61.5 C135.544006,60.256012 136.044006,59.423004 137.5,59 C137.618988,57.718994 137.118988,56.552002 136,55.5 C133.846985,56.145996 131.679993,57.145996 129.5,58.5 C125.472229,58.826447 121.418182,58.488586 117.5,57.5 C113.73999,47.118011 106.407013,43.283997 95.5,46 C91.087006,48.484009 88.087006,52.151001 86.5,57 C85.056,57.781006 83.722992,57.614014 82.5,56.5 C75.338989,47.026001 68.338989,47.192993 61.5,57 C52.643005,56.996002 45.309998,60.162994 39.5,66.5 C38.833008,66.5 38.5,66.833008 38.5,67.5 C34.087006,71.976013 30.92099,77.30899 29,83.5 C20.467316,110.26532 11.633423,136.933685 2.5,163.5 C-7.383972,159.12616 -17.810455,156.099121 -28.5,154.5 C-46.188324,152.498779 -63.617371,148.644287 -80.5,143 C-82.06601,142.391998 -83.399994,141.558014 -84.5,140.5 C-95.636002,136.585999 -104.636002,129.752991 -111.5,120 C-118.602005,117.091003 -122.936005,119.424988 -124.5,127 C-123.947998,132.505005 -121.947998,137.338013 -118.5,141.5 C-102.009003,155.402008 -83.009003,164.234985 -61.5,168 C-46.787628,170.408936 -32.118713,173.075989 -17.5,176 C-0.582001,180.750977 10.084991,191.583984 14.5,208.5 C14.5,208.5 13.5,209.5 13.5,209.5 C2.665985,204.031982 -8.666992,202.531982 -20.5,205 C-23.506012,209.294983 -22.838989,212.960999 -18.5,216 C-8.477051,218.128174 1.381317,220.96875 11,224.5 C11.666992,226.166992 11.666992,227.833008 11,229.5 C11,229.5 5,239.5 5,239.5 C3.882996,241.124023 2.382996,242.124023 0.5,242.5 C0.5,242.5 -19.5,238 -19.5,238 C-22.924011,237.252991 -26.256989,237.419983 -29.5,238.5 C-34.455994,241.815002 -34.789001,245.64801 -30.5,250 C-24.126892,252.592041 -17.36911,254.112549 -10.5,254.5 C-23.208008,264.518982 -37.540985,271.35199 -53.5,275 C-85.862,281.403992 -117.529007,279.237 -148.5,268.5 C-168.973999,261.684021 -186.807999,250.684021 -202,235.5 C-215.005997,220.48999 -222.838997,203.156006 -225.5,183.5 C-226.388,181.96698 -226.888,179.633972 -227,176.5 C-227.487694,177.773254 -227.659271,179.145874 -227.5,180.5 C-229.384178,180.569702 -231.260948,180.228455 -233,179.5 C-234.058998,179.630005 -234.891998,180.130005 -235.5,181 C-234.262001,180.922974 -233.262001,181.088989 -232.5,181.5 C-234.780998,182.184998 -237.113998,182.351013 -239.5,182 C-242.031998,182.612 -242.864998,184.112 -242,186.5 C-241.281998,185.549011 -240.448998,185.382996 -239.5,186 C-240.554001,187.388 -240.720001,188.888 -240,190.5 C-238.657997,189.098022 -237.823998,189.43103 -237.5,191.5 C-237.833,193.833008 -238.833,194.166992 -240.5,192.5 C-240.839996,200.656006 -239.172997,208.48999 -235.5,216 C-235.57,216.765015 -235.903,217.265015 -236.5,217.5 C-236.5,217.5 -232,226.5 -232,226.5 C-231.547997,233.843994 -231.714996,241.177002 -232.5,248.5 C-225.453705,255.848267 -217.755508,262.542358 -209.5,268.5 C-209.666122,264.493042 -209.498886,260.479248 -209,256.5 C-157.358994,297.815979 -99.526001,309.482971 -35.5,291.5 C-39.578003,306.240906 -43.911987,320.90979 -48.5,335.5 C-48.5,335.5 -30.5,337.5 -30.5,337.5 C-29.739014,333.216003 -28.404999,329.216003 -26.5,325.5 C-22.304871,310.741516 -17.803894,296.071716 -13,281.5 C8.941986,269.22998 23.941986,251.22998 32,227.5 C32.823578,224.223267 33.325958,220.874146 33.5,217.5 C34.204987,208.888 33.037994,200.554993 30,192.5 C26.764008,186.138672 22.912231,180.109863 18.5,174.5 C28.233276,144.134308 38.06665,113.800812 48,83.5 C49.694,80.641998 51.860992,78.30899 54.5,76.5 C69.813599,75.546814 85.159454,75.213226 100.5,75.5 C100.989014,79.141998 100.154999,82.808014 98,86.5 C94.648163,88.341919 91.610291,90.704712 89,93.5 C86.730988,97.713989 87.230988,101.546997 90.5,105 C95.696991,108.164001 100.696991,107.830994 105.5,104 C112.658997,95.846008 116.658997,86.346008 117.5,75.5 C117.5,75.5 145.5,75.5 145.5,75.5 C144.705811,80.046356 143.186432,84.435577 141,88.5 C137.503998,91.152008 135.003998,94.485992 133.5,98.5 C135.907013,106.440002 140.907013,108.606995 148.5,105 C155.984009,96.531006 160.649994,86.697998 162.5,75.5 C162.5,75.5 187.5,75.5 187.5,75.5 C186.640015,79.58313 185.469971,83.594757 184,87.5 C181.024902,90.819122 178.50293,94.518005 176.5,98.5 C176.315979,106.149994 179.981995,109.316986 187.5,108 C191.004883,104.821564 194.187012,101.304474 197,97.5 C200.483032,90.714996 203.007141,83.479248 204.5,76 C211.822083,75.167908 219.223328,75.336121 226.5,76.5 C225.877014,83.886993 223.044006,90.220001 218,95.5 C216.271973,98.759003 216.106018,102.092011 217.5,105.5 C223.208984,109.85199 228.375,109.186005 233,103.5 C238.255981,95.233002 241.421997,86.233002 242.5,76.5 C251.494995,75.662994 255.661011,79.662994 255,88.5 C236.033447,151.061188 216.866638,213.561523 197.5,276 C201.51001,273.812012 205.51001,271.312012 209.5,268.5 C214.403015,265.197998 218.736023,261.197998 222.5,256.5 C237.512573,206.786438 252.679321,157.119507 268,107.5 C270.291199,100.009552 271.799255,92.301636 272.5,84.5 C270.46698,65.609009 259.801025,56.776001 240.5,58 C238.41803,53.742004 235.085022,51.242004 230.5,50.5 L 230.5,50.5 ZM114.500001,60.499994C114.648986,59.447996 114.483001,58.448 114.000003,57.500005 C114.478394,58.422394 114.653381,59.47229 114.5,60.5 L 114.500001,60.499994 Z" fill="#44331b"/>
		</g>
		<g transform="matrix(1,0,0,1,0.5,0.5)">
			<path d="M209.5,268.5C208.461975,273.294983 208.461975,277.461975 209.5,281 C205.875977,281.267029 205.210022,280.267029 207.5,278 C206.990112,277.319458 206.296143,276.79895 205.5,276.5 C204.065002,277.823975 203.065002,279.48999 202.5,281.5 C202.593994,280.028015 201.593994,278.862 199.5,278 C197.632996,277.289001 196.132996,277.789001 195,279.5 C195,279.5 194,278.5 194,278.5 C187.476013,282.450806 181.435181,287.149231 176,292.5 C174.159973,291.166992 173.659973,291.333984 174.5,293 C170.258972,293.767029 169.759003,295.267029 173,297.5 C173.24176,296.390442 173.757446,295.359131 174.5,294.5 C176.434021,294.098999 177.934021,293.098999 179,291.5 C179,291.5 180,292.5 180,292.5 C179.848022,294.075989 179.015015,295.408997 177.5,296.5 C177.702576,297.075806 178.046387,297.591553 178.5,298 C177.255981,298.455994 176.422974,297.955994 176,296.5 C176,296.5 175,300.5 175,300.5 C172.806641,299.4823 170.78302,298.133179 169,296.5 C160.12439,301.087097 151.120789,305.42218 142,309.5 C139.550995,308.927979 137.050995,310.094971 134.5,313 C129.639008,314.841003 124.804993,316.674988 120,318.5 C120,318.5 119,316.5 119,316.5 C116.520996,318.674988 113.687012,320.34198 110.5,321.5 C103.743835,323.188599 97.069946,325.190735 90.5,327.5 C87.673676,327.782043 84.826324,327.782043 82,327.5 C80.798279,329.00647 79.255951,330.206055 77.5,331 C79.796997,332.159973 79.463989,333.159973 76.5,334 C77.772003,335.245972 78.105011,336.413025 77.5,337.5 C76.924194,337.297424 76.408447,336.953613 76,336.5 C76,336.5 75,330.5 75,330.5 C71.288361,331.706238 67.619507,333.040344 64,334.5 C64,334.5 63,332.5 63,332.5 C61.575684,333.462769 60.069946,334.299316 58.5,335 C61.226013,335.182007 63.893005,335.682007 66.5,336.5 C64.334991,337.880005 64.001007,339.546997 65.5,341.5 C65.5,341.5 -25.5,341.5 -25.5,341.5 C-26.083862,339.16449 -27.101532,336.959534 -28.5,335 C-27.134003,332.002991 -26.46701,328.835999 -26.5,325.5 C-22.304871,310.741516 -17.803894,296.071716 -13,281.5 C8.941986,269.22998 23.941986,251.22998 32,227.5 C32.823578,224.223267 33.325958,220.874146 33.5,217.5 C34.117004,217.611023 34.617004,217.94397 35,218.5 C35.498993,214.513977 35.665985,210.513977 35.5,206.5 C39.5,206.166992 39.5,205.833008 35.5,205.5 C35.585999,203.322998 36.252991,201.322998 37.5,199.5 C36.571991,198.231995 36.404999,196.898987 37,195.5 C37.666992,196.833008 38.333008,196.833008 39,195.5 C39.507996,197.903992 40.674988,198.570984 42.5,197.5 C43.113007,198.97998 43.446014,200.312988 43.5,201.5 C44.540985,199.008972 45.373993,199.008972 46,201.5 C47,200.166992 48,200.166992 49,201.5 C49.708008,200.619019 50.541992,199.953003 51.5,199.5 C53.195862,199.896973 54.865662,200.397949 56.5,201 C98.5,201.666992 140.5,201.666992 182.5,201 C188.341003,199.823975 190.507019,196.323975 189,190.5 C185.702026,186.835022 181.534973,185.502014 176.5,186.5 C175.151978,185.814026 173.984985,184.814026 173,183.5 C171.130005,184.742981 168.963989,185.409973 166.5,185.5 C166.5,185.5 160.5,185 160.5,185 C160.997986,183.84198 161.830994,183.008972 163,182.5 C164.721985,182.611023 164.888,183.111023 163.5,184 C164.833008,184.666992 166.166992,184.666992 167.5,184 C167.5,184 165.5,183 165.5,183 C168.493011,179.388977 169.493011,179.721985 168.5,184 C170.942993,183.914001 172.609985,182.580994 173.5,180 C172.166992,178.159973 172.333984,177.659973 174,178.5 C175.791016,176.487 177.125,176.487 178,178.5 C178.836975,176.992981 180.004028,176.492981 181.5,177 C180.494995,178.507019 179.161987,179.672974 177.5,180.5 C177.5,180.5 178,181.5 178,181.5 C178.741028,180.359009 179.575012,180.359009 180.5,181.5 C181.234009,180.107117 182.06958,178.770142 183,177.5 C183,177.5 186,178.5 186,178.5 C186.335022,175.820007 185.500977,173.487 183.5,171.5 C184.497986,168.971985 185.330994,168.971985 186,171.5 C186.317993,169.938995 187.151001,168.772003 188.5,168 C188.046387,167.591553 187.702576,167.075806 187.5,166.5 C188.713318,165.724823 190.076172,165.213745 191.5,165 C190.463989,163.382996 189.296997,163.216003 188,164.5 C188,164.5 187,160.5 187,160.5 C185.882996,160.334991 184.716003,160.002014 183.5,159.5 C182.614014,158.674988 182.281006,157.674988 182.5,156.5 C184.124023,156.359985 185.289978,157.027008 186,158.5 C186.424011,155.671997 185.090027,154.338989 182,154.5 C180.463013,155.114014 179.130005,155.114014 178,154.5 C178,154.5 176.5,156 176.5,156 C177.854004,157.294006 179.187988,157.459991 180.5,156.5 C181.76001,158.352997 181.76001,160.186005 180.5,162 C180.5,162 182.5,164 182.5,164 C180.671021,164.27301 179.171021,165.106995 178,166.5 C178,166.5 177,165.5 177,165.5 C176.70105,166.296112 176.180542,166.990082 175.5,167.5 C174.268982,166.348999 174.268982,165.183014 175.5,164 C173.476196,161.803711 171.112732,159.946716 168.5,158.5 C169.273987,157.289001 170.106995,157.289001 171,158.5 C171.367737,157.594116 171.873718,156.750763 172.5,156 C170.930969,155.737671 169.412628,155.231567 168,154.5 C160.68399,154.960999 153.351013,155.295013 146,155.5 C145.544525,154.940704 145.361328,154.207855 145.5,153.5 C164.502991,153.666992 183.502991,153.5 202.5,153 C210.367004,148.428986 210.367004,143.761993 202.5,139 C196.513855,138.500977 190.504639,138.334045 184.5,138.5 C184.340759,137.145844 184.512329,135.773285 185,134.5 C186.968994,134.802002 188.302979,135.802002 189,137.5 C190.059021,137.369995 190.892029,136.869995 191.5,136 C189.968018,135.299988 188.968018,134.134003 188.5,132.5 C189.640991,131.575012 189.640991,130.740997 188.5,130 C190.069031,129.737671 191.587402,129.231567 193,128.5 C193,128.5 194,129.5 194,129.5 C196.763,127.029999 199.929993,126.196014 203.5,127 C202.166992,128 202.166992,129 203.5,130 C209.119019,132.432007 209.784973,131.432007 205.5,127 C206.045532,126.076599 206.718872,125.234924 207.5,124.5 C209.098022,125.484985 210.765015,125.651001 212.5,125 C212.5,125 209.5,124 209.5,124 C213.60199,119.061005 213.268982,118.561005 208.5,122.5 C207.289001,121.726013 207.289001,120.893005 208.5,120 C208.5,120 206.5,119 206.5,119 C208.72583,117.486755 211.066223,116.149353 213.5,115 C211.744019,114.206085 210.201721,113.0065 209,111.5 C209,111.5 208,112.5 208,112.5 C204.320984,110.481995 201.320984,107.815002 199,104.5 C199.031982,108.347992 199.531982,111.847992 200.5,115 C200.5,115 196.5,117 196.5,117 C197.937988,117.218994 199.270996,117.718994 200.5,118.5 C200.153992,119.696014 199.653992,119.696014 199,118.5 C197.526978,120.135986 195.692993,121.135986 193.5,121.5 C189.606018,121.502991 188.940002,120.335999 191.5,118 C190.348389,117.59494 189.316833,116.907257 188.5,116 C189.681091,115.125671 190.555969,113.900787 191,112.5 C191.718018,111.549011 192.551025,111.382996 193.5,112 C190.723999,113.778992 191.057007,114.778992 194.5,115 C191.971985,115.669006 191.971985,116.502014 194.5,117.5 C195.881897,115.902344 196.904907,114.026825 197.5,112 C196.526978,111.651001 195.69397,110.817993 195,109.5 C193.731995,109.615997 192.39801,109.949005 191,110.5 C190.70105,109.703888 190.180542,109.009918 189.5,108.5 C186.770996,109.923004 184.10498,110.589996 181.5,110.5 C180.674011,111.450989 180.507996,112.450989 181,113.5 C182.849976,111.037994 184.017029,111.537994 184.5,115 C182.875,115.852997 182.541992,116.852997 183.5,118 C183.5,118 180.5,119.5 180.5,119.5 C180.890991,118.282013 180.223999,117.447998 178.5,117 C182.226013,115.957001 181.893005,115.457001 177.5,115.5 C178.052002,113.669006 178.052002,112.002991 177.5,110.5 C178.009888,109.819427 178.703857,109.29895 179.5,109 C177.070007,106.804993 175.403015,104.138 174.5,101 C175.065979,100.005005 175.732971,99.171997 176.5,98.5 C176.315979,106.149994 179.981995,109.316986 187.5,108 C191.004883,104.821564 194.187012,101.304474 197,97.5 C200.483032,90.714996 203.007141,83.479248 204.5,76 C211.822083,75.167908 219.223328,75.336121 226.5,76.5 C225.877014,83.886993 223.044006,90.220001 218,95.5 C216.271973,98.759003 216.106018,102.09201 217.5,105.5 C223.208984,109.85199 228.375,109.186005 233,103.5 C238.255981,95.233002 241.421997,86.233002 242.5,76.5 C251.494995,75.662994 255.661011,79.662994 255,88.5 C236.033447,151.061188 216.866638,213.561523 197.5,276 C201.51001,273.812012 205.51001,271.312012 209.5,268.5 C209.5,268.5 209.5,268.5 209.5,268.5 Z" fill="#fefbf3"/>
		</g>
		<g transform="matrix(1,0,0,1,0.5,0.5)">
			<path d="M100.5,75.5C100.989014,79.141998 100.154999,82.808014 98,86.5 C94.648163,88.341919 91.610291,90.704712 89,93.5 C86.730988,97.713989 87.230988,101.546997 90.5,105 C95.696991,108.164001 100.696991,107.830994 105.5,104 C112.658997,95.846008 116.658997,86.346008 117.5,75.5 C117.5,75.5 145.5,75.5 145.5,75.5 C144.705811,80.046356 143.186432,84.435577 141,88.5 C137.503998,91.152008 135.003998,94.485992 133.5,98.5 C135.907013,106.440002 140.907013,108.606995 148.5,105 C155.984009,96.531006 160.649994,86.697998 162.5,75.5 C162.5,75.5 187.5,75.5 187.5,75.5 C186.640015,79.58313 185.469971,83.594757 184,87.5 C181.024902,90.819122 178.50293,94.518005 176.5,98.5 C175.732971,99.171997 175.065979,100.005005 174.5,101 C175.403015,104.138 177.070007,106.804993 179.5,109 C178.703857,109.29895 178.009888,109.819427 177.5,110.5 C178.052002,112.002991 178.052002,113.669006 177.5,115.5 C181.893005,115.457001 182.226013,115.957001 178.5,117 C180.223999,117.447998 180.890991,118.282013 180.5,119.5 C180.5,119.5 183.5,118 183.5,118 C182.541992,116.852997 182.875,115.852997 184.5,115 C184.017029,111.537994 182.849976,111.037994 181,113.5 C180.507996,112.450989 180.674011,111.450989 181.5,110.5 C184.10498,110.589996 186.770996,109.923004 189.5,108.5 C190.180542,109.009918 190.70105,109.703888 191,110.5 C192.39801,109.949005 193.731995,109.615997 195,109.5 C195.69397,110.817993 196.526978,111.651001 197.5,112 C196.904907,114.026825 195.881897,115.902344 194.5,117.5 C191.971985,116.502014 191.971985,115.669006 194.5,115 C191.057007,114.778992 190.723999,113.778992 193.5,112 C192.551025,111.382996 191.718018,111.549011 191,112.5 C190.555969,113.900787 189.681091,115.125671 188.5,116 C189.316833,116.907257 190.348389,117.59494 191.5,118 C188.940002,120.335999 189.606018,121.502991 193.5,121.5 C195.692993,121.135986 197.526978,120.135986 199,118.5 C199.653992,119.696014 200.153992,119.696014 200.5,118.5 C199.286682,117.724823 197.923828,117.213745 196.5,117 C196.5,117 200.5,115 200.5,115 C199.531982,111.847992 199.031982,108.347992 199,104.5 C201.320984,107.815002 204.320984,110.481995 208,112.5 C208,112.5 209,111.5 209,111.5 C210.201721,113.0065 211.744019,114.206085 213.5,115 C211.066223,116.149353 208.72583,117.486755 206.5,119 C206.5,119 208.5,120 208.5,120 C207.289001,120.893005 207.289001,121.726013 208.5,122.5 C213.268982,118.561005 213.60199,119.061005 209.5,124 C209.5,124 212.5,125 212.5,125 C210.765015,125.651001 209.098022,125.484985 207.5,124.5 C206.718872,125.234924 206.045532,126.076599 205.5,127 C209.784973,131.432007 209.119019,132.432007 203.5,130 C202.166992,129 202.166992,128 203.5,127 C199.929993,126.196014 196.763,127.029999 194,129.5 C194,129.5 193,128.5 193,128.5 C191.587402,129.231567 190.069031,129.737671 188.5,130 C189.640991,130.740997 189.640991,131.575012 188.5,132.5 C188.968018,134.134003 189.968018,135.299988 191.5,136 C190.892029,136.869995 190.059021,137.369995 189,137.5 C188.302979,135.802002 186.968994,134.802002 185,134.5 C184.512329,135.773285 184.340759,137.145844 184.5,138.5 C144.498993,138.333008 104.498993,138.5 64.5,139 C59.050995,142.243011 58.217987,146.410004 62,151.5 C63.412628,152.231567 64.930969,152.737671 66.5,153 C92.830994,153.5 119.165009,153.666992 145.5,153.5 C145.361328,154.207855 145.544525,154.940704 146,155.5 C153.338623,155.295227 160.673065,154.961823 168,154.5 C169.412628,155.231567 170.930969,155.737671 172.5,156 C171.873718,156.750763 171.367737,157.594116 171,158.5 C170.106995,157.289001 169.273987,157.289001 168.5,158.5 C171.112732,159.946716 173.476196,161.803711 175.5,164 C174.268982,165.183014 174.268982,166.348999 175.5,167.5 C176.180542,166.990082 176.70105,166.296112 177,165.5 C177,165.5 178,166.5 178,166.5 C179.171021,165.106995 180.671021,164.27301 182.5,164 C182.5,164 180.5,162 180.5,162 C181.76001,160.186005 181.76001,158.352997 180.5,156.5 C179.187988,157.459991 177.854004,157.294006 176.5,156 C176.5,156 178,154.5 178,154.5 C179.130005,155.114014 180.463013,155.114014 182,154.5 C185.090027,154.338989 186.424011,155.671997 186,158.5 C185.289978,157.027008 184.124023,156.359985 182.5,156.5 C182.281006,157.674988 182.614014,158.674988 183.5,159.5 C184.716003,160.002014 185.882996,160.334991 187,160.5 C187,160.5 188,164.5 188,164.5 C189.296997,163.216003 190.463989,163.382996 191.5,165 C190.076172,165.213745 188.713318,165.724823 187.5,166.5 C187.702576,167.075806 188.046387,167.591553 188.5,168 C187.151001,168.772003 186.317993,169.938995 186,171.5 C185.330994,168.971985 184.497986,168.971985 183.5,171.5 C185.500977,173.487 186.335022,175.820007 186,178.5 C186,178.5 183,177.5 183,177.5 C182.06958,178.770142 181.234009,180.107117 180.5,181.5 C179.575012,180.359009 178.741028,180.359009 178,181.5 C178,181.5 177.5,180.5 177.5,180.5 C179.161987,179.672974 180.494995,178.507019 181.5,177 C180.004028,176.492981 178.836975,176.992981 178,178.5 C177.125,176.487 175.791016,176.487 174,178.5 C172.333984,177.659973 172.166992,178.159973 173.5,180 C172.609985,182.580994 170.942993,183.914001 168.5,184 C169.493011,179.721985 168.493011,179.388977 165.5,183 C165.5,183 167.5,184 167.5,184 C166.166992,184.666992 164.833008,184.666992 163.5,184 C164.888,183.111023 164.721985,182.611023 163,182.5 C161.830994,183.008972 160.997986,183.84198 160.5,185 C160.5,185 166.5,185.5 166.5,185.5 C168.963989,185.409973 171.130005,184.742981 173,183.5 C173.984985,184.814026 175.151978,185.814026 176.5,186.5 C135.165009,186.333008 93.832001,186.5 52.5,187 C47.527008,190.767029 47.192993,194.934021 51.5,199.5 C50.541992,199.953003 49.708008,200.619019 49,201.5 C48,200.166992 47,200.166992 46,201.5 C45.373993,199.008972 44.540985,199.008972 43.5,201.5 C43.446014,200.312988 43.113007,198.97998 42.5,197.5 C40.674988,198.570984 39.507996,197.903992 39,195.5 C38.333008,196.833008 37.666992,196.833008 37,195.5 C36.404999,196.898987 36.571991,198.231995 37.5,199.5 C36.252991,201.322998 35.585999,203.322998 35.5,205.5 C39.5,205.833008 39.5,206.166992 35.5,206.5 C35.666138,210.506958 35.498871,214.520752 35,218.5 C34.617004,217.94397 34.117004,217.611023 33.5,217.5 C34.204987,208.888 33.037994,200.554993 30,192.5 C26.764008,186.138672 22.912231,180.109863 18.5,174.5 C28.233276,144.134308 38.06665,113.800812 48,83.5 C49.694,80.641998 51.860992,78.30899 54.5,76.5 C69.813599,75.546814 85.159454,75.213226 100.5,75.5 C100.5,75.5 100.5,75.5 100.5,75.5 Z" fill="#fefbf3"/>
		</g>
		<g transform="matrix(1,0,0,1,0.5,0.5)">
			<path d="M184.5,138.5C190.508972,138.334015 196.508972,138.501007 202.5,139 C210.367004,143.761993 210.367004,148.428986 202.5,153 C183.502991,153.5 164.502991,153.666992 145.5,153.5 C119.165009,153.666992 92.830994,153.5 66.5,153 C64.930969,152.737671 63.412628,152.231567 62,151.5 C58.217987,146.410004 59.050995,142.243011 64.5,139 C104.498993,138.5 144.498993,138.333008 184.5,138.5 C184.5,138.5 184.5,138.5 184.5,138.5 ZM176.5,186.5C181.534973,185.502014 185.702026,186.835022 189,190.5 C190.507019,196.323975 188.341003,199.823975 182.5,201 C140.5,201.666992 98.5,201.666992 56.5,201 C54.865662,200.397949 53.195862,199.896973 51.5,199.5 C47.192993,194.934021 47.527008,190.767029 52.5,187 C93.832001,186.5 135.165009,186.333008 176.5,186.5 C176.5,186.5 176.5,186.5 176.5,186.5 Z" fill="#ece4cf"/>
		</g>
		<g transform="matrix(1,0,0,1,0.5,0.5)">
			<path d="M-22.5,-280.5C-10.871429,-279.166702 0.871429,-279.166702 12.5,-280.5 C19.551849,-280.183121 26.570831,-279.34753 33.5,-278 C79.77301,-271.198997 119.105988,-251.198997 151.5,-218 C171.177979,-222.333 188.177979,-217.499001 202.5,-203.5 C217.299988,-179.610992 215.46698,-156.944 197,-135.5 C196.083557,-133.987732 195.567383,-132.266998 195.5,-130.5 C199.991516,-107.096024 202.334595,-83.330505 202.5,-59.5 C220.027832,-62.285675 237.842651,-62.789856 255.5,-61 C260.710022,-59.789001 262.544006,-56.622986 261,-51.5 C260.291992,-50.618988 259.458008,-49.953003 258.5,-49.5 C257.66803,-50.32901 258.000977,-51.161987 259.5,-52 C259.5,-52 258,-53.5 258,-53.5 C256.648987,-51.98999 254.981995,-50.98999 253,-50.5 C251.27002,-51.648987 249.604004,-51.648987 248,-50.5 C245.370972,-50.928009 243.038025,-51.928009 241,-53.5 C239.968994,-51.57901 238.468994,-51.57901 236.5,-53.5 C238.424988,-53.837006 239.924988,-55.170013 241,-57.5 C243.057983,-56.890991 243.890991,-55.890991 243.5,-54.5 C244.075806,-54.702545 244.591553,-55.046387 245,-55.5 C246.754211,-54.745422 248.605591,-54.240509 250.5,-54 C250.5,-54 248.5,-53 248.5,-53 C255.867981,-51.950012 257.200989,-53.617004 252.5,-58 C258.174988,-58.463989 258.507996,-59.131012 253.5,-60 C251.5,-60.666992 249.5,-60.666992 247.5,-60 C247.5,-60 250.5,-57.5 250.5,-57.5 C250.5,-57.5 248,-56.5 248,-56.5 C245.286011,-58.02301 242.453003,-58.855988 239.5,-59 C239.5,-59 243.5,-60 243.5,-60 C241.279114,-60.225983 239.095337,-60.729919 237,-61.5 C236.249268,-60.873749 235.405884,-60.367737 234.5,-60 C236.270996,-59.464996 236.604004,-58.631012 235.5,-57.5 C234.205444,-58.0979 232.868469,-58.599274 231.5,-59 C231.5,-59 232.5,-60 232.5,-60 C224.801453,-60.651398 217.048767,-60.145782 209.5,-58.5 C210.833008,-57.5 210.833008,-56.5 209.5,-55.5 C210.359131,-54.757416 211.390442,-54.24173 212.5,-54 C212.5,-54 210.5,-51 210.5,-51 C226.031006,-50.902008 241.364014,-50.069 256.5,-48.5 C254.892639,-47.918793 253.207275,-47.581726 251.5,-47.5 C234.934082,-50.09201 218.065918,-50.09201 201.5,-47.5 C201.199707,-42.127228 200.531494,-36.781372 199.5,-31.5 C219.319946,-28.878235 238.778015,-24.013733 257.5,-17 C263.252014,-13.819 263.919006,-9.819 259.5,-5 C259.5,-5 255.5,-4.5 255.5,-4.5 C243.759644,-8.968109 231.732605,-12.643036 219.5,-15.5 C212.719971,-17.654999 205.719971,-18.321991 198.5,-17.5 C193.663025,6.161987 185.997009,28.82901 175.5,50.5 C173.658997,51.673004 171.825989,51.673004 170,50.5 C168.428589,52.034668 166.555756,53.226471 164.5,54 C167.172424,54.754486 169.705139,55.936432 172,57.5 C177.763977,54.39801 178.596985,55.230988 174.5,60 C175.505981,61.338013 176.505981,62.67099 177.5,64 C176.294983,65.270996 174.961975,65.937012 173.5,66 C174.607971,63.01001 173.775024,60.51001 171,58.5 C170.492981,59.996002 170.992981,61.162994 172.5,62 C171.22998,62.899994 170.22998,64.06601 169.5,65.5 C166.820007,62.557007 166.153015,62.890015 167.5,66.5 C166.490601,67.339081 165.643311,68.355835 165,69.5 C164.279999,67.888 164.446014,66.388 165.5,65 C164.251007,63.175995 163.084991,63.342987 162,65.5 C161.734985,67.162994 162.234985,68.662994 163.5,70 C162.806183,71.07373 162.299011,72.25708 162,73.5 C160.022003,71.253998 159.022003,68.92099 159,66.5 C157.666992,70.5 156.333008,70.5 155,66.5 C154.279999,68.112 154.446014,69.612 155.5,71 C153.820007,71.033997 152.320007,71.200989 151,71.5 C150.688995,68.921997 151.522003,66.755005 153.5,65 C153.5,65 150.5,64 150.5,64 C152.433014,63.21701 153.933014,63.71701 155,65.5 C156.230011,63.980011 157.397003,63.147003 158.5,63 C158.274994,61.378998 157.441986,60.212006 156,59.5 C154.50708,60.764587 152.818359,61.777802 151,62.5 C149.311096,62.064697 147.761841,61.20401 146.5,60 C147.634003,58.984009 147.300995,58.316986 145.5,58 C147.783997,56.636993 147.950989,55.136993 146,53.5 C146,53.5 145,56.5 145,56.5 C143.933014,54.71701 142.433014,54.21701 140.5,55 C142.290985,55.415009 143.623993,56.415009 144.5,58 C142.451813,58.788635 140.581879,59.978577 139,61.5 C138,60.166992 137,60.166992 136,61.5 C135.544006,60.256012 136.044006,59.423004 137.5,59 C137.618988,57.718994 137.118988,56.552002 136,55.5 C133.846985,56.145996 131.679993,57.145996 129.5,58.5 C133.859985,47.316986 141.692993,43.984009 153,48.5 C162.554993,32.942993 169.388,16.277008 173.5,-1.5 C175.631592,-7.01944 177.303894,-12.705414 178.5,-18.5 C175.800354,-19.223907 173.13147,-20.057953 170.5,-21 C167.389008,-24.889008 168.056,-27.889008 172.5,-30 C175.135742,-30.496521 177.822937,-30.664459 180.5,-30.5 C180.436157,-35.186554 180.770691,-39.870087 181.5,-44.5 C177.67218,-43.069122 173.562256,-42.555389 169.5,-43 C165.5,-46 165.5,-49 169.5,-52 C174.040649,-53.731995 178.541748,-55.565796 183,-57.5 C186.531006,-109.067001 172.864014,-155.401001 142,-196.5 C114.343994,-228.083 79.843994,-247.916 38.5,-256 C-19.309998,-267.036003 -72.643005,-256.369003 -121.5,-224 C-127.355927,-219.568008 -133.027359,-214.897408 -138.5,-210 C-141.033798,-207.978256 -143.083771,-205.415802 -144.5,-202.5 C-139.507996,-197.692993 -138.007996,-192.026001 -140,-185.5 C-143.744003,-181.429001 -148.244003,-180.429001 -153.5,-182.5 C-161.981003,-192.610001 -172.647995,-196.610001 -185.5,-194.5 C-198.667007,-192.166 -206.834,-184.498993 -210,-171.5 C-212.253006,-149.335007 -202.419998,-136.335007 -180.5,-132.5 C-194.766006,-88.641006 -198.432999,-43.973999 -191.5,1.5 C-191.390793,12.533325 -192.059113,23.560638 -193.5,34.5 C-194.709579,45.338928 -196.884888,56.048126 -200,66.5 C-207.001648,88.832825 -214.001648,111.166138 -221,133.5 C-224.802528,149.878754 -226.316933,166.705475 -225.5,183.5 C-226.388,181.96698 -226.888,179.633972 -227,176.5 C-227.487694,177.773254 -227.659271,179.145874 -227.5,180.5 C-229.384178,180.569702 -231.260948,180.228455 -233,179.5 C-234.058998,179.630005 -234.891998,180.130005 -235.5,181 C-234.262001,180.922974 -233.262001,181.088989 -232.5,181.5 C-234.76738,182.183716 -237.158463,182.354492 -239.5,182 C-242.031998,182.612 -242.864998,184.112 -242,186.5 C-241.281998,185.549011 -240.448997,185.382996 -239.5,186 C-240.554001,187.388 -240.720001,188.888 -240,190.5 C-238.657997,189.098022 -237.823997,189.43103 -237.5,191.5 C-237.833,193.833008 -238.833,194.166992 -240.5,192.5 C-240.839996,200.656006 -239.172997,208.48999 -235.5,216 C-235.57,216.765015 -235.903,217.265015 -236.5,217.5 C-247.528,185.830017 -248.360001,153.829987 -239,121.5 C-230.926117,98.117615 -223.754158,74.433441 -217.5,50.5 C-211.701004,26.533997 -210.367004,2.200989 -213.5,-22.5 C-213.5,-22.5 -213.5,-77.5 -213.5,-77.5 C-211.440521,-90.452042 -208.770874,-103.299667 -205.5,-116 C-222.785004,-128.735992 -231.452003,-145.903 -231.5,-167.5 C-230.672997,-171.363007 -229.838997,-175.363007 -229,-179.5 C-217.226997,-209.886002 -195.559998,-221.219002 -164,-213.5 C-155.496994,-223.181999 -145.996994,-231.514999 -135.5,-238.5 C-131.921036,-240.058769 -128.559601,-242.07563 -125.5,-244.5 C-124.914001,-244.290001 -124.414001,-243.957001 -124,-243.5 C-123.046219,-244.575752 -122.208267,-245.748878 -121.5,-247 C-114.979553,-251.082199 -108.308197,-254.918236 -101.5,-258.5 C-96.44664,-261.693283 -91.086639,-264.373283 -85.5,-266.5 C-65.156006,-273.970001 -44.156006,-278.636002 -22.5,-280.5 C-22.5,-280.5 -22.5,-280.5 -22.5,-280.5 Z" fill="#44331b"/>
		</g>
		<g transform="matrix(1,0,0,1,0.5,0.5)">
			<path d="M-38.271265,-49.153775C-38.01566,-49.253629 -37.758574,-49.369036 -37.500006,-49.499997 C-22.587891,-54.53952 -7.158478,-57.893738 8.5,-59.5 C11.967011,-71.967987 19.967011,-79.63501 32.5,-82.5 C40.728333,-84.236633 49.094391,-85.24057 57.5,-85.5 C74.032013,-87.078003 88.36499,-82.411011 100.5,-71.5 C104.123993,-67.917999 105.790985,-63.584991 105.5,-58.5 C127.166992,-56.165985 145.5,-47.165985 160.5,-31.5 C167.170013,-22.481995 171.502991,-12.481995 173.5,-1.5 C175.631592,-7.01944 177.303894,-12.705414 178.5,-18.5 C175.788025,-19.227997 173.120972,-20.061005 170.5,-21 C167.389008,-24.889008 168.056,-27.889008 172.5,-30 C175.135742,-30.496521 177.822937,-30.664459 180.5,-30.5 C180.436157,-35.186554 180.770691,-39.870087 181.5,-44.5 C177.67218,-43.069122 173.562256,-42.555389 169.5,-43 C165.5,-46 165.5,-49 169.5,-52 C174.040649,-53.731995 178.541748,-55.565796 183,-57.5 C186.531006,-109.067001 172.864014,-155.401001 142,-196.5 C114.343994,-228.083 79.843994,-247.916 38.5,-256 C-19.309998,-267.036003 -72.643005,-256.369003 -121.5,-224 C-127.355927,-219.568008 -133.027359,-214.897408 -138.5,-210 C-141.033798,-207.978256 -143.083771,-205.415802 -144.5,-202.5 C-139.507996,-197.692993 -138.007996,-192.026001 -140,-185.5 C-143.744003,-181.429001 -148.244003,-180.429001 -153.5,-182.5 C-161.981003,-192.610001 -172.647995,-196.610001 -185.5,-194.5 C-198.667007,-192.166 -206.834,-184.498993 -210,-171.5 C-212.253006,-149.335007 -202.419998,-136.335007 -180.5,-132.5 C-194.766006,-88.641006 -198.432999,-43.973999 -191.5,1.5 C-191.390793,12.533325 -192.059113,23.560638 -193.5,34.5 C-194.709579,45.338928 -196.884888,56.048126 -200,66.5 C-207.001648,88.832825 -214.001648,111.166138 -221,133.5 C-224.802528,149.878754 -226.316933,166.705475 -225.5,183.5 C-222.838997,203.156006 -215.005997,220.48999 -202,235.5 C-186.807999,250.684021 -168.973999,261.684021 -148.5,268.5 C-117.529007,279.237 -85.862,281.403992 -53.5,275 C-37.540985,271.35199 -23.208008,264.518982 -10.5,254.5 C-17.36911,254.112549 -24.126892,252.592041 -30.5,250 C-34.789001,245.64801 -34.455994,241.815002 -29.5,238.5 C-26.256989,237.419983 -22.924011,237.252991 -19.5,238 C-19.5,238 0.5,242.5 0.5,242.5 C2.382996,242.124023 3.882996,241.124023 5,239.5 C5,239.5 11,229.5 11,229.5 C11.666992,227.833008 11.666992,226.166992 11,224.5 C1.381317,220.96875 -8.477051,218.128174 -18.5,216 C-22.838989,212.960999 -23.506012,209.294983 -20.5,205 C-8.666992,202.531982 2.665985,204.031982 13.5,209.5 C13.5,209.5 14.5,208.5 14.5,208.5 C10.084991,191.583984 -0.582001,180.750977 -17.5,176 C-32.118713,173.075989 -46.787628,170.408936 -61.5,168 C-83.009003,164.234985 -102.009003,155.402008 -118.5,141.5 C-121.947998,137.338013 -123.947998,132.505005 -124.5,127 C-122.936005,119.424988 -118.602005,117.091003 -111.5,120 C-104.636002,129.752991 -95.636002,136.585999 -84.5,140.5 C-83.698151,111.480133 -80.689484,82.563354 -75.5,54 C-78.694,48.483002 -82.528015,43.31601 -87,38.5 C-94.748993,23.289001 -95.582001,7.622986 -89.5,-8.5 C-99.72612,-7.554871 -109.799759,-5.372253 -119.5,-2 C-130.860519,3.097351 -142.034378,8.600891 -153,14.5 C-155.878006,14.169006 -158.044006,12.835999 -159.5,10.5 C-160.074997,6.149994 -158.408005,2.983002 -154.5,1 C-130.166,-12.278015 -104.166,-19.778015 -76.5,-21.5 C-65.56382,-33.344183 -52.820908,-42.56177 -38.271265,-49.153775 L -38.271265,-49.153775 ZM159.999999,-65.500006C159.821014,-67.424011 159.653992,-69.090998 159.500001,-70.499992 C159.679871,-68.834686 159.846527,-67.167969 160,-65.5 L 159.999999,-65.500006 ZM-78.499991,-50.999998C-76.930966,-50.737669 -75.412631,-50.231568 -74.000008,-49.500004 C-75.398987,-50.22699 -76.898987,-50.72699 -78.5,-51 L -78.499991,-50.999998 ZM-75.5,-45.5C-80.147247,-46.296173 -84.815704,-46.963104 -89.5,-47.5 C-111.851913,-49.393616 -134.351349,-48.554077 -156.5,-45 C-164.848007,-41.618011 -165.514999,-37.285004 -158.5,-32 C-146.151764,-33.554443 -133.817917,-35.221191 -121.5,-37 C-106.162064,-37.736389 -90.791443,-37.402252 -75.5,-36 C-71.580994,-39.160004 -71.580994,-42.326996 -75.5,-45.5 L -75.5,-45.5 ZM-84.000006,-54.500004C-85.066988,-55.19101 -86.233991,-55.691008 -87.499993,-55.999998 C-86.25708,-55.700989 -85.07373,-55.193817 -84,-54.5 L -84.000006,-54.500004 ZM137.5,-130.5C128.606995,-140.158997 120.106995,-139.826004 112,-129.5 C107.217987,-119.242004 106.217987,-108.574997 109,-97.5 C115.091003,-82.32901 124.591003,-79.32901 137.5,-88.5 C145.234985,-102.507996 145.234985,-116.507996 137.5,-130.5 L 137.5,-130.5 ZM-48.5,335.5C-43.911987,320.90979 -39.578003,306.240906 -35.5,291.5 C-99.526001,309.482971 -157.358994,297.815979 -209,256.5 C-209.498886,260.479248 -209.666122,264.493042 -209.5,268.5 C-161.942993,305.03302 -108.276001,327.366028 -48.5,335.5 L -48.5,335.5 ZM167.5,-197.5C175.114014,-185.940002 181.447998,-173.606995 186.5,-160.5 C187.002014,-159.479004 187.66803,-159.311996 188.5,-160 C190.836975,-164.013 192.171021,-168.345993 192.5,-173 C191.588989,-188.744995 183.255981,-196.910995 167.5,-197.5 L 167.5,-197.5 Z" fill="#be7f42"/>
		</g>
		<g transform="matrix(1,0,0,1,0.5,0.5)">
			<path d="M-48.5,-134.5C-53.476013,-131.688995 -57.30899,-127.688995 -60,-122.5 C-65.937012,-106.126007 -62.770996,-91.959 -50.5,-80 C-42.605988,-76.924011 -35.77301,-78.424011 -30,-84.5 C-24.842987,-94.209 -23.177002,-104.542007 -25,-115.5 C-27.906006,-128.175003 -35.739014,-134.507996 -48.5,-134.5 L -48.5,-134.5 ZM137.5,-130.5C128.606995,-140.158997 120.106995,-139.826004 112,-129.5 C107.217987,-119.242004 106.217987,-108.574997 109,-97.5 C115.091003,-82.32901 124.591003,-79.32901 137.5,-88.5 C145.234985,-102.507996 145.234985,-116.507996 137.5,-130.5 L 137.5,-130.5 ZM105.5,-58.5C105.790985,-63.584991 104.123993,-67.917999 100.5,-71.5 C88.36499,-82.411011 74.032013,-87.078003 57.5,-85.5 C49.094391,-85.24057 40.728333,-84.236633 32.5,-82.5 C19.967011,-79.63501 11.967011,-71.967987 8.5,-59.5 C9.604004,-50.208008 13.937012,-42.708008 21.5,-37 C31.084991,-30.858002 41.417999,-26.358002 52.5,-23.5 C55.772003,-3.286987 47.438995,8.880005 27.5,13 C11.408997,16.562988 -3.256989,13.562988 -16.5,4 C-18.727997,-0.472992 -22.062012,-3.807007 -26.5,-6 C-31.834015,-7.333008 -35.166992,-5.333008 -36.5,0 C-33.695007,11.970001 -26.695007,20.470001 -15.5,25.5 C-0.648987,31.529999 14.68399,33.029999 30.5,30 C41.981995,27.843994 51.81601,22.677002 60,14.5 C71.585999,27.028015 85.752991,31.528015 102.5,28 C117.553009,24.274994 128.385986,15.441986 135,1.5 C138.5,-8.049011 135.333008,-12.549011 125.5,-12 C122.542999,-7.920013 119.709991,-3.752991 117,0.5 C114.931885,2.446716 112.762177,4.282623 110.5,6 C98.264008,14.041992 86.431,13.209015 75,3.5 C69.381012,-4.980011 67.213989,-14.313995 68.5,-24.5 C74.140167,-25.817474 79.539001,-28.010742 84.5,-31 C95.97699,-36.803986 102.97699,-45.971008 105.5,-58.5 L 105.5,-58.5 ZM-76.5,-21.5C-104.166,-19.778015 -130.166,-12.278015 -154.5,1 C-158.408005,2.983002 -160.074997,6.149994 -159.5,10.5 C-158.044006,12.835999 -155.878006,14.169006 -153,14.5 C-142.034378,8.600891 -130.860519,3.097351 -119.5,-2 C-109.799759,-5.372253 -99.72612,-7.554871 -89.5,-8.5 C-82.523346,-9.802612 -75.522003,-10.969513 -68.5,-12 C-65.609985,-15.419006 -65.942993,-18.419006 -69.5,-21 C-71.809998,-21.497009 -74.143005,-21.662994 -76.5,-21.5 L -76.5,-21.5 ZM-213.5,-77.5C-214.818001,-59.190369 -214.818001,-40.809631 -213.5,-22.5 C-213.5,-22.5 -213.5,-77.5 -213.5,-77.5 L -213.5,-77.5 ZM258.5,-49.5C257.66803,-50.32901 258.000977,-51.161987 259.5,-52 C259.5,-52 258,-53.5 258,-53.5 C256.648987,-51.98999 254.981995,-50.98999 253,-50.5 C251.27002,-51.648987 249.604004,-51.648987 248,-50.5 C245.370972,-50.928009 243.038025,-51.928009 241,-53.5 C239.968994,-51.57901 238.468994,-51.57901 236.5,-53.5 C238.424988,-53.837006 239.924988,-55.170013 241,-57.5 C243.057983,-56.890991 243.890991,-55.890991 243.5,-54.5 C244.075806,-54.702545 244.591553,-55.046387 245,-55.5 C246.754211,-54.745422 248.605591,-54.240509 250.5,-54 C250.5,-54 248.5,-53 248.5,-53 C255.867981,-51.950012 257.200989,-53.617004 252.5,-58 C258.174988,-58.463989 258.507996,-59.131012 253.5,-60 C251.5,-60.666992 249.5,-60.666992 247.5,-60 C247.5,-60 250.5,-57.5 250.5,-57.5 C250.5,-57.5 248,-56.5 248,-56.5 C245.286011,-58.02301 242.453003,-58.855988 239.5,-59 C239.5,-59 243.5,-60 243.5,-60 C241.279114,-60.225983 239.095337,-60.729919 237,-61.5 C236.249268,-60.873749 235.405884,-60.367737 234.5,-60 C236.270996,-59.464996 236.604004,-58.631012 235.5,-57.5 C234.205017,-58.097992 232.872009,-58.597992 231.5,-59 C231.5,-59 232.5,-60 232.5,-60 C224.801453,-60.651398 217.048767,-60.145782 209.5,-58.5 C210.833008,-57.5 210.833008,-56.5 209.5,-55.5 C210.359131,-54.757416 211.390442,-54.24173 212.5,-54 C212.5,-54 210.5,-51 210.5,-51 C225.864746,-50.911224 241.216125,-50.076904 256.5,-48.5 C257.492004,-48.328003 258.15802,-48.661987 258.5,-49.5 L 258.5,-49.5 ZM-89.5,-47.5C-111.851913,-49.393616 -134.351349,-48.554077 -156.5,-45 C-164.848007,-41.618011 -165.514999,-37.285004 -158.5,-32 C-146.151764,-33.554443 -133.817917,-35.221191 -121.5,-37 C-106.162064,-37.736389 -90.791443,-37.402252 -75.5,-36 C-71.580994,-39.160004 -71.580994,-42.326996 -75.5,-45.5 C-80.147003,-46.29599 -84.813995,-46.963013 -89.5,-47.5 L -89.5,-47.5 ZM-189.5,-154.5C-182.421005,-145.516998 -174.921005,-145.184006 -167,-153.5 C-166.834,-161.022995 -170.334,-166.190002 -177.5,-169 C-188.863998,-171.136993 -193.197998,-166.636993 -190.5,-155.5 C-189.832993,-155.5 -189.5,-155.167007 -189.5,-154.5 L -189.5,-154.5 Z" fill="#44331b"/>
		</g>
	</g>
</g></g></svg>